<?xml version="1.0" encoding="utf-8"?>
<!-- Generator: Adobe Illustrator 24.1.0, SVG Export Plug-In . SVG Version: 6.00 Build 0)  -->
<svg version="1.1"
	 id="svg8" inkscape:export-filename="/home/arturo-mora/Imágenes/2. Inkscape/BML Envios/Logo/BML Envios Logo Envios 2.png" inkscape:export-xdpi="300" inkscape:export-ydpi="300" inkscape:version="1.0.1 (3bc2e813f5, 2020-09-07)" sodipodi:docname="BML Envios Logo Envios.svg" xmlns:cc="http://creativecommons.org/ns#" xmlns:dc="http://purl.org/dc/elements/1.1/" xmlns:inkscape="http://www.inkscape.org/namespaces/inkscape" xmlns:rdf="http://www.w3.org/1999/02/22-rdf-syntax-ns#" xmlns:sodipodi="http://sodipodi.sourceforge.net/DTD/sodipodi-0.dtd" xmlns:svg="http://www.w3.org/2000/svg"
	 xmlns="http://www.w3.org/2000/svg" xmlns:xlink="http://www.w3.org/1999/xlink" x="0px" y="0px"
	 viewBox="760 -313.567 1080.163 445.567" enable-background="new 760 -313.567 1080.163 445.567" xml:space="preserve">
<g>
	<path fill="#FF0000" d="M1115.25-118.581c-25.786-0.083-46.655-0.187-61.094-0.299c-7.214-0.058-12.814-0.116-16.648-0.177
		c-1.914-0.033-3.38-0.061-4.412-0.097c-0.527-0.014-0.928-0.029-1.307-0.054c-0.188-0.011-0.347-0.025-0.671-0.065
		c-0.155-0.021-0.325-0.033-0.805-0.159c-0.249-0.061-1.22-0.462-1.224-0.462c-0.003-0.004-2.531-3.885-2.542-3.907
		c0.007-0.018,2.546-3.896,2.549-3.896c0.004-0.004,0.978-0.404,1.22-0.469c0.48-0.123,0.646-0.134,0.802-0.155
		c0.325-0.04,0.484-0.054,0.671-0.065c0.379-0.025,0.78-0.04,1.307-0.054c1.033-0.032,2.499-0.065,4.412-0.094
		c3.834-0.065,9.434-0.123,16.648-0.181c14.439-0.112,35.307-0.213,61.094-0.299c2.589-0.009,5.264-0.018,7.954-0.026
		c-0.888-1.45-1.82-2.827-2.82-4.109c-13.843-0.033-26.837-0.068-38.737-0.108c-25.783-0.083-46.656-0.188-61.09-0.299
		c-7.217-0.058-12.817-0.116-16.652-0.181c-1.914-0.029-3.376-0.058-4.416-0.09c-0.52-0.018-0.921-0.033-1.3-0.058
		c-0.191-0.011-0.354-0.025-0.672-0.065c-0.159-0.021-0.325-0.033-0.809-0.159c-0.245-0.061-1.22-0.462-1.224-0.462
		c-0.007-0.003-2.527-3.885-2.538-3.91c0.007-0.014,2.542-3.892,2.542-3.892c0.007-0.004,0.979-0.404,1.224-0.47
		c0.484-0.123,0.646-0.133,0.805-0.155c0.318-0.04,0.48-0.054,0.672-0.065c0.379-0.026,0.78-0.036,1.3-0.058
		c1.04-0.032,2.502-0.061,4.416-0.094c3.834-0.061,9.435-0.119,16.652-0.177c14.435-0.112,35.307-0.217,61.09-0.3
		c8.979-0.031,18.587-0.058,28.696-0.083c1.39-0.915,2.805-1.896,4.26-3.013c-22.956-0.041-43.984-0.094-62.455-0.153
		c-25.783-0.09-46.655-0.191-61.09-0.303c-7.221-0.058-12.821-0.119-16.652-0.18c-1.91-0.029-3.38-0.058-4.419-0.09
		c-0.516-0.018-0.921-0.033-1.3-0.058c-0.188-0.011-0.354-0.025-0.668-0.065c-0.163-0.022-0.329-0.029-0.813-0.155
		c-0.242-0.065-1.224-0.466-1.224-0.47c-0.004-0.004-2.524-3.881-2.538-3.906c0.007-0.014,2.538-3.892,2.542-3.896
		c0.007-0.004,0.986-0.404,1.224-0.466c0.484-0.123,0.646-0.133,0.809-0.155c0.314-0.04,0.48-0.054,0.668-0.065
		c0.379-0.025,0.783-0.04,1.3-0.058c1.04-0.033,2.509-0.065,4.419-0.094c3.831-0.061,9.431-0.119,16.652-0.177
		c14.435-0.116,35.307-0.213,61.09-0.3c21.638-0.072,46.774-0.132,74.431-0.177c1.22-1.234,2.43-2.433,3.686-3.784
		c7.766-8.347,13.24-17.551,16.414-27.61c7.459-23.652,4.759-41.579-8.088-53.782c-12.705-12.308-33.029-18.461-60.96-18.461
		H919.339H808.619l-2.993,6.553c8.795,0.025,17.154,0.054,24.96,0.083c22.248,0.087,40.254,0.188,52.71,0.3
		c6.228,0.058,11.056,0.119,14.363,0.18c1.65,0.029,2.917,0.058,3.813,0.094c0.447,0.018,0.798,0.029,1.123,0.058
		c0.162,0.011,0.303,0.022,0.574,0.065c0.141,0.022,0.282,0.029,0.697,0.155c0.206,0.061,1.051,0.466,1.054,0.469
		c0.007,0,2.188,3.878,2.199,3.889c-0.014,0.029-2.184,3.906-2.192,3.91c0,0.004-0.849,0.401-1.058,0.466
		c-0.411,0.126-0.56,0.137-0.701,0.155c-0.274,0.043-0.411,0.054-0.574,0.068c-0.325,0.025-0.675,0.036-1.123,0.054
		c-0.895,0.033-2.159,0.065-3.805,0.094c-3.307,0.061-8.142,0.123-14.37,0.177c-12.453,0.112-30.462,0.217-52.71,0.304
		c-9.225,0.036-19.215,0.068-29.805,0.097l-1.365,2.99c20.887,0.045,39.943,0.101,56.617,0.166
		c22.252,0.083,40.257,0.184,52.714,0.296c6.228,0.058,11.059,0.119,14.363,0.18c1.654,0.029,2.917,0.062,3.809,0.094
		c0.451,0.018,0.798,0.033,1.127,0.054c0.162,0.014,0.303,0.025,0.574,0.068c0.141,0.022,0.285,0.033,0.701,0.155
		c0.202,0.061,1.054,0.466,1.054,0.466s2.185,3.881,2.192,3.896c-0.011,0.022-2.184,3.903-2.188,3.907
		c-0.004,0-0.845,0.404-1.054,0.465c-0.419,0.13-0.563,0.137-0.704,0.155c-0.274,0.04-0.411,0.054-0.574,0.069
		c-0.329,0.021-0.675,0.036-1.127,0.054c-0.892,0.036-2.148,0.065-3.805,0.098c-3.304,0.058-8.138,0.119-14.367,0.173
		c-12.456,0.115-30.462,0.217-52.714,0.303c-17.962,0.069-38.73,0.126-61.534,0.17l-1.755,3.847
		c35.073,0.049,66.531,0.128,92.282,0.226c22.255,0.083,40.25,0.184,52.714,0.299c6.228,0.054,11.059,0.116,14.363,0.177
		c1.65,0.029,2.914,0.061,3.809,0.094c0.451,0.018,0.798,0.033,1.126,0.054c0.159,0.014,0.3,0.026,0.574,0.069
		c0.141,0.021,0.282,0.029,0.697,0.155c0.202,0.061,1.051,0.465,1.054,0.465c0.003,0.004,2.188,3.881,2.191,3.896
		c-0.011,0.026-2.184,3.903-2.188,3.907c0,0-0.845,0.404-1.05,0.469c-0.419,0.123-0.563,0.13-0.704,0.155
		c-0.274,0.036-0.415,0.054-0.574,0.065c-0.328,0.025-0.675,0.036-1.126,0.054c-0.895,0.033-2.148,0.065-3.806,0.097
		c-3.307,0.061-8.138,0.119-14.366,0.177c-12.46,0.112-30.458,0.213-52.714,0.299c-26.96,0.103-60.177,0.183-97.257,0.231
		l-4.654,10.196h118.609L837.088-0.321h172.417c26.967,0,51.41-7.597,73.329-22.797c21.912-15.197,36.582-34.571,44.005-58.112
		c4.56-14.459,4.95-26.88,1.267-37.311C1123.713-118.553,1119.395-118.566,1115.25-118.581z M964.655-205.327h95.358
		c7.813,0,14.002,1.769,18.562,5.297c4.665,3.535,5.834,8.994,3.506,16.377c-2.296,7.275-6.676,12.68-13.142,16.215
		c-6.362,3.531-13.872,5.297-22.541,5.297h-95.354L964.655-205.327z M1063.908-81.23c-5.261,16.695-17.525,25.042-36.791,25.042
		H917.631l15.792-50.089h109.493c5.131,0,9.626,0.856,13.474,2.567c3.986,1.61,6.694,4.228,8.113,7.867
		C1066.064-92.311,1065.869-87.44,1063.908-81.23z"/>
	<text transform="matrix(0.9537 0 -0.3008 0.9537 1479.9868 61.2819)" font-family="'ErasITC-Bold'" font-size="76.938px">ENVIOS</text>
	<g>
		<path fill="#FF0000" d="M1532.898-156.903c1.914,0.029,3.376,0.061,4.423,0.094c0.512,0.018,0.921,0.033,1.296,0.058
			c0.188,0.011,0.354,0.026,0.671,0.065c0.159,0.022,0.321,0.033,0.802,0.155c0.242,0.061,1.22,0.462,1.227,0.466
			c0.004,0.003,2.535,3.881,2.542,3.896c-0.015,0.025-2.531,3.903-2.534,3.906c-0.004,0.004-0.982,0.404-1.224,0.47
			c-0.484,0.126-0.653,0.133-0.812,0.155c-0.318,0.04-0.484,0.054-0.671,0.065c-0.376,0.026-0.784,0.04-1.296,0.058
			c-1.044,0.033-2.502,0.061-4.416,0.09c-1.018,0.016-2.184,0.033-3.452,0.049l-1.22,3.87c6.571,0.036,12.46,0.074,17.515,0.114
			c7.217,0.058,12.817,0.116,16.648,0.177c1.917,0.032,3.383,0.061,4.416,0.094c0.527,0.022,0.924,0.033,1.307,0.058
			c0.187,0.011,0.346,0.025,0.672,0.065c0.151,0.022,0.321,0.033,0.801,0.155c0.245,0.065,1.22,0.466,1.224,0.47
			c0,0,2.538,3.878,2.546,3.892c-0.014,0.026-2.534,3.907-2.542,3.91c-0.004,0-0.978,0.401-1.22,0.462
			c-0.48,0.126-0.657,0.138-0.808,0.159c-0.325,0.04-0.484,0.054-0.672,0.065c-0.383,0.025-0.78,0.04-1.307,0.058
			c-1.033,0.033-2.491,0.061-4.408,0.09c-3.827,0.065-9.438,0.123-16.656,0.181c-5.856,0.045-12.821,0.09-20.692,0.132l-1.397,4.428
			c23.28,0.083,42.29,0.177,55.696,0.281c2.618,0.022,4.943,0.042,7.127,0.063l41.788-132.541h-62.932l-32.881,104.283
			C1532.594-156.906,1532.767-156.905,1532.898-156.903z"/>
		<path fill="#FF0000" d="M1627.157-46.453c0.419-0.13,0.556-0.137,0.697-0.159c0.274-0.044,0.411-0.054,0.578-0.065
			c0.325-0.026,0.672-0.04,1.123-0.058c0.896-0.033,2.156-0.061,3.813-0.094c3.3-0.061,8.135-0.119,14.363-0.177
			c12.452-0.112,30.462-0.213,52.703-0.299c30.567-0.119,69.142-0.206,112.302-0.249l4.315-8.907l-253.416,0.274l19.778-62.727
			c-1.307,0.011-2.625,0.024-4.058,0.034c-14.034,0.108-34.185,0.209-58.978,0.292l-37.29,118.267h232.615l0.018-0.06l74.175-0.02
			l3.867-7.983c-14.016-0.036-27.061-0.076-38.882-0.123c-22.248-0.086-40.258-0.188-52.707-0.3
			c-6.232-0.058-11.059-0.115-14.366-0.18c-1.65-0.029-2.914-0.058-3.813-0.09c-0.447-0.018-0.794-0.033-1.119-0.058
			c-0.166-0.011-0.3-0.026-0.581-0.065c-0.137-0.022-0.282-0.029-0.701-0.155c-0.209-0.065-1.05-0.466-1.054-0.469
			c-0.004-0.004-2.181-3.882-2.192-3.903c0.007-0.018,2.195-3.896,2.195-3.899c0.003,0,0.852-0.404,1.058-0.466
			c0.415-0.123,0.556-0.133,0.693-0.155c0.278-0.04,0.415-0.054,0.581-0.065c0.325-0.026,0.672-0.04,1.119-0.058
			c0.899-0.032,2.163-0.061,3.813-0.09c3.307-0.065,8.135-0.123,14.366-0.18c12.449-0.116,30.458-0.213,52.707-0.3
			c13.261-0.05,28.061-0.095,44.059-0.133l1.896-3.91c-28.123-0.047-53.515-0.116-74.944-0.198
			c-22.252-0.087-40.257-0.188-52.71-0.3c-6.228-0.058-11.059-0.115-14.366-0.18c-1.65-0.029-2.91-0.058-3.809-0.09
			c-0.448-0.022-0.798-0.032-1.123-0.058c-0.162-0.015-0.303-0.026-0.578-0.065c-0.141-0.022-0.289-0.029-0.704-0.159
			c-0.206-0.061-1.05-0.462-1.054-0.466c0,0-2.177-3.881-2.192-3.906c0.011-0.014,2.195-3.892,2.202-3.892
			c0-0.004,0.845-0.408,1.051-0.47c0.415-0.123,0.556-0.133,0.697-0.152c0.274-0.043,0.415-0.058,0.578-0.069
			c0.325-0.025,0.675-0.04,1.123-0.054c0.899-0.036,2.159-0.065,3.809-0.098c3.307-0.061,8.138-0.119,14.366-0.173
			c12.453-0.119,30.458-0.22,52.71-0.303c22.754-0.086,49.97-0.157,80.193-0.206l1.358-2.805
			c-41.008-0.045-77.702-0.13-107.009-0.242c-22.241-0.083-40.25-0.188-52.703-0.3c-6.228-0.058-11.063-0.116-14.363-0.177
			c-1.657-0.033-2.917-0.061-3.813-0.097c-0.451-0.015-0.798-0.029-1.123-0.054c-0.166-0.011-0.303-0.025-0.578-0.065
			c-0.141-0.021-0.282-0.033-0.701-0.155c-0.209-0.065-1.051-0.465-1.054-0.469c-0.004,0-2.181-3.881-2.192-3.907
			c0.004-0.014,2.195-3.892,2.195-3.896C1626.107-45.991,1626.952-46.392,1627.157-46.453z"/>
	</g>
	<g>
		<path fill="#FF0000" d="M1423.238-133.102c-20.887,0.04-43.391,0.07-67.13,0.092l-3.156,3.724
			c23.295,0.011,45.702,0.029,66.892,0.058L1423.238-133.102z"/>
		<path fill="#FF0000" d="M1312.352-132.983c-9.6,0.002-19.338,0.004-29.198,0.004c-12.803,0-25.379-0.004-37.734-0.007l0.914,3.722
			c21.407-0.018,43.785-0.029,66.816-0.029L1312.352-132.983z"/>
		<path fill="#FF0000" d="M1238.517-132.99c-21.905-0.011-42.962-0.033-62.91-0.058l-1.224,3.881
			c19.63-0.038,40.73-0.069,62.957-0.091L1238.517-132.99z"/>
		<path fill="#FF0000" d="M1367.741-146.746l-2.386,2.816c23.905,0.023,46.482,0.058,67.289,0.101l1.274-1.455l-0.458,1.457
			c18.591,0.038,35.784,0.085,51.194,0.135c4.029,0.013,7.896,0.027,11.68,0.04l1.094-3.472
			c-11.915,0.065-26.133,0.126-42.272,0.182C1430.178-146.862,1400.557-146.793,1367.741-146.746z"/>
		<path fill="#FF0000" d="M1493.066-133.286c-2.751,0.011-5.538,0.02-8.412,0.029c-16.342,0.054-34.672,0.103-54.573,0.143
			l-1.227,3.898c22.635,0.033,43.724,0.074,62.892,0.125L1493.066-133.286z"/>
		<path fill="#FF0000" d="M1179.911-146.699l-0.881,2.794c19.988-0.025,41.052-0.045,62.946-0.054l0.419-1.325l0.325,1.323
			c13.214-0.006,26.703-0.009,40.434-0.009c9.055,0,17.995,0.001,26.833,0.003l-0.585-2.719
			c-18.034,0.011-36.665,0.018-55.746,0.018C1228.147-146.667,1203.44-146.678,1179.911-146.699z"/>
		<path fill="#FF0000" d="M1425.434-118.373L1388.209-0.321h62.935l37.257-118.173
			C1469.168-118.445,1448.028-118.406,1425.434-118.373z"/>
		<path fill="#FF0000" d="M1343.652-118.306l-22.429,26.48l-5.705-26.476c-22.913,0-45.164-0.011-66.495-0.027l22.075,89.752h60.52
			l78.695-89.778C1389.112-118.33,1366.795-118.313,1343.652-118.306z"/>
		<path fill="#FF0000" d="M1455.155-157.379c17.63,0.06,32.896,0.123,45.446,0.195l32.791-104.008h-68.712l-87.776,103.629
			C1406.089-157.517,1432.518-157.453,1455.155-157.379z"/>
		<path fill="#FF0000" d="M1171-118.436L1133.758-0.321h62.931l37.21-118.023C1211.658-118.367,1190.576-118.398,1171-118.436z"/>
		<path fill="#FF0000" d="M1253.656-157.657c18.255,0,36.083,0.007,53.385,0.018l-22.317-103.554h-68.712l-32.653,103.564
			C1205.845-157.647,1229.393-157.657,1253.656-157.657z"/>
	</g>
</g>
</svg>
